<svg width="49" height="53" viewBox="0 0 49 53" fill="none" xmlns="http://www.w3.org/2000/svg">
<path d="M0.552246 11.6587C0.552246 10.3803 1.46367 9.34391 2.58796 9.34391L9.6186 9.34267C11.0155 9.3024 12.2479 8.29241 12.7232 6.79825C12.7357 6.75896 12.75 6.71051 12.8016 6.53468L13.1045 5.50108C13.2899 4.86735 13.4514 4.31521 13.6774 3.82171C14.5703 1.87208 16.2222 0.518222 18.1311 0.171604C18.6143 0.0838606 19.1261 0.0842302 19.7135 0.0846524H28.8915C29.479 0.0842302 29.9906 0.0838606 30.4738 0.171604C32.3828 0.518222 34.0347 1.87208 34.9275 3.82171C35.1536 4.31521 35.3151 4.86735 35.5004 5.50108L35.8033 6.53468C35.8548 6.71051 35.8693 6.75896 35.8817 6.79825C36.3572 8.29241 37.8339 9.30364 39.2307 9.34391H46.0166C47.1408 9.34391 48.0522 10.3803 48.0522 11.6587C48.0522 12.9371 47.1408 13.9735 46.0166 13.9735H2.58796C1.46367 13.9735 0.552246 12.9371 0.552246 11.6587Z" fill="#193DB9"/>
<path fill-rule="evenodd" clip-rule="evenodd" d="M23.2351 52.8626H25.3695C32.7127 52.8626 36.3845 52.8626 38.7716 50.5248C41.159 48.187 41.4031 44.3522 41.8915 36.6823L42.5953 25.6309C42.8605 21.4693 42.993 19.3887 41.7952 18.0701C40.5977 16.7516 38.5753 16.7516 34.5306 16.7516H14.0741C10.0293 16.7516 8.00684 16.7516 6.80924 18.0701C5.61163 19.3887 5.74416 21.4693 6.00921 25.6309L6.71302 36.6823C7.20151 44.3522 7.44574 48.187 9.83298 50.5248C12.2202 52.8626 15.8919 52.8626 23.2351 52.8626ZM19.6745 26.9712C19.5658 25.8264 18.5958 24.9909 17.5081 25.1055C16.4205 25.22 15.627 26.241 15.7357 27.3857L17.0552 41.2747C17.1639 42.4195 18.1338 43.255 19.2214 43.1404C20.3091 43.0259 21.1026 42.0049 20.9939 40.8602L19.6745 26.9712ZM31.0964 25.1055C32.1841 25.22 32.9776 26.241 32.8689 27.3857L31.5495 41.2747C31.4408 42.4195 30.4707 43.255 29.3832 43.1404C28.2955 43.0259 27.502 42.0049 27.6107 40.8602L28.9301 26.9712C29.0388 25.8264 30.0089 24.9909 31.0964 25.1055Z" fill="#193DB9"/>
</svg>
