<svg width="52" height="52" viewBox="0 0 52 52" fill="none" xmlns="http://www.w3.org/2000/svg">
<path d="M36.8486 14.7235H14.9723V36.5998H36.8486V14.7235Z" fill="#193DB9"/>
<path d="M51.4328 19.0532V14.0399H47.7868V6.51988C47.7868 5.79463 47.4987 5.09909 46.9859 4.58627C46.473 4.07344 45.7775 3.78534 45.0522 3.78534H37.5323V0.139282H32.5189V3.78534H28.4171V0.139282H23.4038V3.78534H19.302V0.139282H14.2886V3.78534H6.76866C6.04341 3.78534 5.34787 4.07344 4.83505 4.58627C4.32222 5.09909 4.03412 5.79463 4.03412 6.51988V14.0399H0.388062V19.0532H4.03412V23.155H0.388062V28.1683H4.03412V32.2701H0.388062V37.2835H4.03412V44.8035C4.03412 45.5287 4.32222 46.2242 4.83505 46.7371C5.34787 47.2499 6.04341 47.538 6.76866 47.538H14.2886V51.1841H19.302V47.538H23.4038V51.1841H28.4171V47.538H32.5189V51.1841H37.5323V47.538H45.0522C45.7775 47.538 46.473 47.2499 46.9859 46.7371C47.4987 46.2242 47.7868 45.5287 47.7868 44.8035V37.2835H51.4328V32.2701H47.7868V28.1683H51.4328V23.155H47.7868V19.0532H51.4328ZM11.3262 11.0774H40.4947V40.2459H11.3262V11.0774Z" fill="#193DB9"/>
</svg>
