<svg width="49" height="49" viewBox="0 0 49 49" fill="none" xmlns="http://www.w3.org/2000/svg">
<path fill-rule="evenodd" clip-rule="evenodd" d="M28.8358 48.0813H19.2256C10.1649 48.0813 5.63459 48.0812 2.81978 45.2664C0.00500517 42.4518 0.00500488 37.9213 0.00500488 28.8607V19.2504C0.00500488 10.1897 0.00500517 5.65943 2.81978 2.84463C5.63459 0.0298465 10.1888 0.0298462 19.2972 0.0298462C20.7531 0.0298462 21.9198 0.0298461 22.9015 0.069873C22.8693 0.26191 22.8522 0.457816 22.8515 0.655884L22.8294 7.46573C22.8292 10.1016 22.8289 12.431 23.0815 14.3087C23.3551 16.344 23.9834 18.3789 25.6443 20.0397C27.3049 21.7005 29.3399 22.3288 31.3751 22.6025C33.253 22.855 35.5823 22.8547 38.2181 22.8545H38.4461H47.9541C48.0564 24.1382 48.0564 25.7136 48.0564 27.8105V28.8607C48.0564 37.9213 48.0564 42.4518 45.2416 45.2664C42.4269 48.0812 37.8964 48.0813 28.8358 48.0813ZM7.81336 30.062C7.81336 29.0668 8.62012 28.26 9.61529 28.26H28.8358C29.831 28.26 30.6378 29.0668 30.6378 30.062C30.6378 31.0571 29.831 31.8639 28.8358 31.8639H9.61529C8.62012 31.8639 7.81336 31.0571 7.81336 30.062ZM7.81336 38.471C7.81336 37.4758 8.62012 36.669 9.61529 36.669H22.8294C23.8246 36.669 24.6313 37.4758 24.6313 38.471C24.6313 39.4661 23.8246 40.2729 22.8294 40.2729H9.61529C8.62012 40.2729 7.81336 39.4661 7.81336 38.471Z" fill="#193DB9"/>
<path d="M41.6938 13.5243L32.1825 4.96414C29.4728 2.52536 28.118 1.30596 26.4555 0.66803L26.4333 7.23783C26.4333 12.9007 26.4333 15.7322 28.1925 17.4914C29.9519 19.2507 32.7833 19.2507 38.4462 19.2507H47.0476C46.1765 17.5587 44.617 16.155 41.6938 13.5243Z" fill="#193DB9"/>
</svg>
