<svg width="46" height="36" viewBox="0 0 46 36" fill="none" xmlns="http://www.w3.org/2000/svg">
<path d="M22.7422 30.2295C24.1298 30.2295 25.2547 31.3544 25.2547 32.742C25.2547 34.1296 24.1298 35.2545 22.7422 35.2545C21.3546 35.2545 20.2297 34.1296 20.2297 32.742C20.2297 31.3544 21.3546 30.2295 22.7422 30.2295Z" fill="#193DB9"/>
<path d="M43.3234 13.3058C41.0493 10.058 38.0386 7.39444 34.5377 5.533C31.037 3.67154 27.1452 2.66509 23.181 2.59587C19.2165 2.52667 15.292 3.3967 11.7283 5.13485C8.16459 6.87297 5.06283 9.42986 2.67664 12.5964M37.1492 20.1418C35.5573 17.8683 33.4498 16.0038 30.9991 14.7008C28.5487 13.3978 25.8244 12.693 23.0493 12.6448C20.2742 12.5963 17.5271 13.2053 15.0325 14.4219C12.5379 15.6387 10.3667 17.4286 8.69636 19.6451M28.9167 25.9063C28.2343 24.9319 27.3314 24.1327 26.2809 23.5744C25.2307 23.0159 24.0631 22.7139 22.8739 22.6933C21.6845 22.6724 20.5072 22.9335 19.4381 23.4548C18.369 23.9764 17.4385 24.7435 16.7226 25.6935" stroke="#193DB9" stroke-width="5" stroke-linecap="round" stroke-linejoin="round"/>
</svg>
