<svg width="48" height="50" viewBox="0 0 48 50" fill="none" xmlns="http://www.w3.org/2000/svg">
<path fill-rule="evenodd" clip-rule="evenodd" d="M25.7756 0.0845947C28.008 0.0845947 29.926 1.60705 30.346 3.71257L30.5327 4.64884C31.2668 8.32896 35.2307 10.5266 38.9167 9.29711L39.8549 8.98416C41.9637 8.28072 44.2957 9.11449 45.4118 10.971L47.0978 13.7752C48.2141 15.6317 47.7999 17.988 46.1111 19.39L45.36 20.0135C42.408 22.464 42.408 26.8594 45.36 29.3099L46.1111 29.9334C47.7999 31.3354 48.2141 33.6916 47.0978 35.5482L45.412 38.3523C44.2957 40.2089 41.9637 41.0426 39.8546 40.3391L38.9169 40.0261C35.2307 38.7964 31.2668 40.9941 30.5327 44.6745L30.346 45.6108C29.926 47.7163 28.008 49.2388 25.7756 49.2388H22.4036C20.1712 49.2388 18.2532 47.7163 17.8332 45.611L17.6463 44.6741C16.9122 40.9941 12.9482 38.7964 9.26217 40.0261L8.32457 40.3389C6.21569 41.0426 3.88363 40.2087 2.76735 38.3521L1.08143 35.5482C-0.0348128 33.6916 0.379232 31.3354 2.06808 29.9334L2.81927 29.3099C5.77115 26.8592 5.77115 22.464 2.81927 20.0136L2.06808 19.39C0.379232 17.988 -0.0348106 15.6318 1.08143 13.7752L2.76741 10.9711C3.88365 9.11451 6.21564 8.28074 8.32451 8.98422L9.26237 9.29708C12.9483 10.5266 16.9122 8.32911 17.6463 4.64908L17.8332 3.7124C18.2532 1.60697 20.171 0.0845947 22.4036 0.0845947H25.7756ZM24.0896 31.6838C28.005 31.6838 31.1792 28.5398 31.1792 24.6617C31.1792 20.7834 28.005 17.6397 24.0896 17.6397C20.174 17.6397 17 20.7834 17 24.6617C17 28.5398 20.174 31.6838 24.0896 31.6838Z" fill="#193DB9"/>
</svg>
