<svg width="53" height="51" viewBox="0 0 53 51" fill="none" xmlns="http://www.w3.org/2000/svg">
<path d="M39.3586 2.74309C51.6836 9.04673 56.5446 24.1943 50.241 36.5193C43.9373 48.8444 28.8211 53.7054 16.4647 47.4017C10.6002 44.391 6.42909 39.3732 4.35924 33.6027L9.50251 30.3725C10.9138 35.2962 14.2694 39.6241 19.1618 42.1644C28.6016 46.994 40.1426 43.262 44.9723 33.8222C49.8333 24.3825 46.1013 12.8415 36.6615 7.98044C27.2217 3.15079 15.6807 6.88279 10.851 16.3226L16.747 19.3646L1.22309 29.0239L0 10.7716L5.58233 13.6255C11.9173 1.23774 27.1276 -3.49783 39.3586 2.74309ZM25.685 27.2991C25.1205 26.7346 24.7755 25.9505 24.7755 25.0724C24.7755 24.8529 24.8696 24.6961 24.901 24.4765H24.8696L27.9117 9.39171L30.9537 24.4765L40.4562 34.4808L26.3436 27.8322L26.4063 27.7695C26.1554 27.644 25.9045 27.4872 25.685 27.2991Z" fill="#193DB9"/>
</svg>
